# Blender v3.2.0 OBJ File: ''
# www.blender.org
mtllib glock_1.mtl
o Plane_Plane.001
v 1.952754 -0.665250 1.452912
v 2.280782 -1.449928 1.452911
v 1.091555 -0.873031 1.452927
v 1.244681 -1.471866 1.452927
v 1.952754 -0.665250 1.452912
v 1.952754 -0.665250 1.452912
v 1.091555 -0.873031 1.452927
v 1.952754 -0.665250 1.452912
v 1.618577 0.283771 1.452912
v 0.591898 0.113678 1.449418
v 1.618577 0.283771 1.452912
v 1.618577 0.283771 1.452912
v 0.591898 0.113678 1.449418
v 1.618577 0.283771 1.452912
v 1.618577 0.283771 1.452912
v 0.591898 0.113678 1.449418
v 1.618577 0.283771 1.452912
v 1.618577 0.283771 1.452912
v 0.591898 0.113678 1.449418
v 1.618577 0.283771 1.452912
v 1.760328 1.024025 1.452912
v 0.371195 1.015851 1.452927
v 1.760328 1.024025 1.452912
v 1.760328 1.024025 1.452912
v 1.760328 1.024025 1.452912
v 1.760328 1.024025 1.452912
v 0.371195 1.015851 1.452927
v 1.760328 1.024025 1.452912
v 1.760328 1.024025 1.452912
v 0.371195 1.015851 1.452927
v 1.760328 1.024025 1.452912
v 1.760328 1.554198 1.452912
v 0.371195 1.546025 1.452927
v -2.370767 1.015851 1.452927
v -2.370767 1.015851 1.452927
v -2.370767 1.015851 1.452927
v -2.370767 1.015851 1.452927
v -2.370767 1.015851 1.452927
v -2.370767 1.015851 1.452927
v -2.370767 1.015851 1.452927
v -2.370767 1.015851 1.452927
v -2.370767 1.015851 1.452927
v 0.591898 0.113678 1.449418
v -2.370767 1.015851 1.452927
v -2.370767 1.015851 1.452927
v 0.591898 0.113678 1.449418
v -2.370767 1.015851 1.452927
v 0.591898 0.113678 1.449418
v 0.591898 0.113678 1.449418
v 0.591898 0.113678 1.449418
v 0.591898 0.113678 1.449418
v -2.370767 0.660580 1.452927
v -2.370767 0.660580 1.452927
v -2.370767 0.660580 1.452927
v -2.370767 0.660580 1.452927
v -2.370767 0.660580 1.452927
v -2.370767 0.660580 1.452927
v -2.370767 0.660580 1.452927
v 0.495427 0.660580 1.452927
v -2.370767 0.660580 0.673555
v -2.370767 0.660580 1.452927
v 0.458424 0.668378 1.448486
v -2.370767 1.546024 1.452927
v 0.591898 0.113678 1.449418
v 1.952754 -0.665250 0.673010
v 2.280782 -1.449928 0.673010
v 1.091555 -0.873031 0.673026
v 1.244681 -1.471866 0.673026
v 1.952754 -0.665250 0.673010
v 1.952754 -0.665250 0.673010
v 1.091555 -0.873031 0.673026
v 1.952754 -0.665250 0.673010
v 1.618577 0.283771 0.673011
v 0.591898 0.113678 0.669517
v 1.618577 0.283771 0.673011
v 1.618577 0.283771 0.673011
v 0.591898 0.113678 0.669517
v 1.618577 0.283771 0.673011
v 1.618577 0.283771 0.673011
v 0.591898 0.113678 0.669517
v 1.618577 0.283771 0.673011
v 1.618577 0.283771 0.673011
v 0.591898 0.113678 0.669517
v 1.618577 0.283771 0.673011
v 1.760328 1.024025 0.673011
v 0.371195 1.015851 0.673026
v 0.371195 1.015851 0.673026
v 0.371195 1.015851 0.673026
v -2.370767 1.015851 0.673026
v 0.371195 1.546024 0.673026
v -2.370767 1.015851 0.673026
v 1.760328 1.554198 0.673011
v -2.370767 1.015851 0.673026
v -2.370767 1.015851 0.673026
v -2.370767 1.015851 0.673026
v -2.370767 1.015851 0.673026
v -2.370767 1.015851 0.673026
v -2.370767 1.015851 0.673026
v -2.370767 1.015851 0.673026
v 0.591898 0.113678 0.669517
v -2.370767 1.015851 0.673026
v -2.370767 1.015851 0.673026
v 0.591898 0.113678 0.669517
v -2.370767 1.015851 0.673026
v 0.591898 0.113678 0.669517
v 0.591898 0.113678 0.669517
v 0.591898 0.113678 0.669517
v 0.591898 0.113678 0.669517
v -2.370767 0.660580 0.673026
v -2.370767 0.660580 0.673026
v -2.370767 0.660580 0.673026
v -2.370767 0.660580 0.673026
v -2.370767 0.660580 0.673026
v -2.370767 0.660580 0.673026
v -2.370767 0.660580 0.673026
v -2.370767 0.660580 0.673026
v -2.370767 0.660580 0.673026
v -2.370767 0.660580 0.673026
v -2.370767 0.660580 0.673026
v -2.370767 0.660580 0.673026
v -2.370767 0.660580 0.673026
v -2.370767 0.660580 0.673026
v 0.457155 0.664711 0.671821
v -2.370767 1.546024 0.675461
v 0.371195 1.546024 0.675461
v 1.760329 1.554198 0.675445
v -2.370767 1.546024 0.673026
v 1.760328 1.554198 0.673011
v 0.371195 1.546024 0.673026
v 1.760328 1.024025 0.673011
v -2.370767 1.546024 1.452927
v -2.370767 1.546024 0.673026
v 0.371195 1.546025 1.452927
v 1.760328 1.554198 1.452912
v 0.591898 0.113678 0.669517
v 0.372485 1.018460 0.685071
v -2.370767 0.660580 0.673555
v 0.475719 0.660580 0.673082
v -2.370767 0.660580 0.673026
v -2.370767 0.660580 0.673026
v -2.370767 0.660580 0.673026
v -2.370767 0.660580 0.673026
v -2.370767 0.660580 0.673026
v -2.370767 0.660580 0.673026
v -2.370767 0.660580 0.673026
v -2.370767 0.660580 0.673026
v -2.370767 0.660580 0.673026
v -2.370767 0.660580 0.673026
v -2.370767 0.660580 0.673026
v -2.370767 0.660580 0.673026
v -2.370767 0.660580 0.673026
v -2.370767 0.660580 0.673026
v -2.370767 0.660580 0.673026
v 0.371324 1.016109 1.452051
v 0.371714 1.015976 0.671901
v 1.755220 1.023823 1.452912
v 1.755220 1.023823 0.673011
v 1.755220 1.554974 1.452912
v 1.755220 1.554974 0.673011
vt 0.000000 0.000000
vt 0.000000 1.000000
vt 1.000000 1.000000
vt 1.000000 0.000000
vt 0.000000 0.000000
vt 0.000000 0.000000
vt 0.000000 0.000000
vt 0.000000 0.000000
vt 0.000000 0.000000
vt 0.000000 0.000000
vt 0.000000 0.000000
vt 0.000000 0.000000
vt 0.000000 1.000000
vt 0.000000 0.000000
vt 0.000000 0.000000
vt 0.000000 0.000000
vt 0.000000 0.000000
vt 0.000000 0.000000
vt 0.000000 0.000000
vt 0.000000 0.000000
vt 0.000000 0.000000
vt 0.000000 0.000000
vt 0.000000 0.000000
vt 0.000000 0.000000
vt 0.000000 0.000000
vt 0.000000 0.000000
vt 0.000000 0.000000
vt 0.000000 0.000000
vt 0.000000 0.000000
vt 0.000000 0.000000
vt 0.000000 0.000000
vt 0.000000 0.000000
vt 0.000000 0.000000
vt 0.000000 0.000000
vt 0.000000 0.000000
vt 0.000000 0.000000
vt 0.000000 1.000000
vt 0.000000 0.000000
vt 0.000000 0.000000
vt 0.000000 0.000000
vt 0.000000 1.000000
vt 0.000000 0.000000
vt 0.000000 0.000000
vt 0.000000 0.000000
vt 0.000000 0.000000
vt 0.000000 1.000000
vt 0.000000 1.000000
vt 0.000000 1.000000
vt 0.000000 0.000000
vt 0.000000 1.000000
vt 0.000000 1.000000
vt 0.000000 1.000000
vt 0.000000 1.000000
vt 0.000000 1.000000
vt 0.000000 0.000000
vt 0.000000 0.000000
vt 0.000000 0.000000
vt 0.000000 0.000000
vt 0.000000 0.000000
vt 1.000000 0.000000
vt 1.000000 1.000000
vt 0.000000 1.000000
vt 0.000000 0.000000
vt 0.000000 0.000000
vt 0.000000 0.000000
vt 0.000000 0.000000
vt 0.000000 0.000000
vt 0.000000 0.000000
vt 0.000000 0.000000
vt 0.000000 0.000000
vt 0.000000 1.000000
vt 0.000000 0.000000
vt 0.000000 0.000000
vt 0.000000 0.000000
vt 0.000000 0.000000
vt 0.000000 0.000000
vt 0.000000 0.000000
vt 0.000000 0.000000
vt 0.000000 0.000000
vt 0.000000 0.000000
vt 0.000000 0.000000
vt 0.000000 0.000000
vt 0.000000 0.000000
vt 0.000000 0.000000
vt 0.000000 0.000000
vt 0.000000 0.000000
vt 0.000000 0.000000
vt 0.000000 1.000000
vt 0.000000 0.000000
vt 0.000000 0.000000
vt 0.000000 0.000000
vt 0.000000 1.000000
vt 0.000000 0.000000
vt 0.000000 0.000000
vt 0.000000 0.000000
vt 0.000000 0.000000
vt 0.000000 1.000000
vt 0.000000 1.000000
vt 0.000000 1.000000
vt 0.000000 0.000000
vt 0.000000 0.000000
vt 0.000000 0.000000
vt 0.000000 1.000000
vt 0.000000 1.000000
vt 0.000000 1.000000
vt 0.000000 1.000000
vt 0.000000 1.000000
vt 0.000000 1.000000
vt 0.000000 1.000000
vt 0.000000 1.000000
vt 0.000000 0.000000
vt 0.000000 0.000000
vt 0.000000 1.000000
vt 0.000000 0.000000
vt 0.000000 0.000000
vt 0.000000 0.000000
vt 0.000000 0.000000
vt 0.000000 0.000000
vt 0.000000 0.000000
vt 0.000000 0.000000
vt 0.000000 0.000000
vt 0.000000 1.000000
vt 0.000000 1.000000
vt 0.000000 1.000000
vt 0.000000 1.000000
vt 0.000000 1.000000
vt 0.000000 0.000000
vt 0.000000 0.000000
vt 0.000000 0.000000
vt 0.000000 0.000000
vt 0.000000 0.000000
vt 0.000000 0.000000
vt 0.000000 0.000000
vt 0.000000 0.000000
vt 0.000000 0.000000
vt 0.000000 0.000000
vt 0.000000 0.000000
vt 0.000000 0.000000
vt 0.000000 0.000000
vt 0.000000 1.000000
vt 0.000000 0.000000
vt 0.000000 0.000000
vt 0.000000 0.000000
vt 0.000000 0.000000
vt 0.000000 0.000000
vt 0.000000 0.000000
vt 0.000000 0.000000
vt 0.000000 1.000000
vt 0.000000 0.000000
vt 0.000000 0.000000
vt 0.000000 0.000000
vt 0.000000 0.000000
vt 0.000000 0.000000
vt 0.000000 0.000000
vt 0.000000 0.000000
vt 0.000000 0.000000
vt 0.000000 0.000000
vt 0.000000 0.000000
vt 0.000000 1.000000
vt 0.000000 1.000000
vt 0.000000 0.000000
vt 0.000000 0.000000
vt 0.000000 0.000000
vt 0.000000 0.000000
vt 0.000000 0.000000
vt 0.000000 0.000000
vt 0.000000 0.000000
vt 0.000000 0.000000
vt 0.000000 0.000000
vt 0.000000 0.000000
vt 0.000000 0.000000
vt 0.000000 0.000000
vt 0.000000 0.000000
vn 0.0000 0.0000 1.0000
vn -0.0020 0.0009 1.0000
vn 0.0013 0.0022 -1.0000
vn -0.0000 0.0000 -1.0000
vn -0.0013 -0.0022 1.0000
vn -0.0008 0.0062 -1.0000
vn 0.0020 -0.0009 -1.0000
vn -0.0002 0.0017 -1.0000
vn -0.8921 -0.4518 0.0000
vn 0.9226 0.3857 0.0000
vn 0.0212 -0.9998 0.0000
vn -0.9688 -0.2477 0.0000
vn -0.9432 -0.3321 0.0000
vn -0.1634 0.9866 -0.0000
vn -0.0059 1.0000 -0.0000
vn 0.0000 -1.0000 0.0000
vn -0.9714 -0.2372 -0.0002
vn -0.9834 0.1816 0.0000
vn -1.0000 0.0000 0.0000
usemtl None
s off
f 1/1/1 3/2/1 4/3/1 2/4/1
f 3/5/1 10/6/1 51/7/1 13/8/1 7/9/1
f 1/1/1 9/10/1 11/11/1 5/12/1
f 1/1/2 9/10/2 10/13/2 3/2/2
f 5/12/1 11/11/1 14/14/1 8/15/1
f 1/1/1 9/10/1 12/16/1 6/17/1
f 18/18/1 29/19/1 26/20/1 15/21/1
f 14/14/1 25/22/1 31/23/1 20/24/1
f 17/25/1 28/26/1 26/20/1 15/21/1
f 11/11/1 23/27/1 25/22/1 14/14/1
f 16/28/3 27/29/3 26/20/3 15/21/3
f 29/19/1 32/30/1 26/20/1
f 25/22/1 32/30/1 31/23/1
f 28/26/1 32/30/1 26/20/1
f 27/29/4 33/31/4 32/30/4 26/20/4
f 23/27/1 32/30/1 25/22/1
f 12/16/1 24/32/1 29/19/1 18/18/1
f 19/33/1 30/34/1 27/29/1 16/28/1 50/35/1
f 9/10/5 21/36/5 22/37/5 10/13/5
f 20/24/1 31/23/1 28/26/1 17/25/1
f 9/10/1 21/36/1 23/27/1 11/11/1
f 9/10/1 21/36/1 24/32/1 12/16/1
f 38/38/1 63/39/1 37/40/1
f 21/36/1 32/30/1 33/41/1 22/37/1
f 24/32/1 32/30/1 29/19/1
f 37/40/1 63/39/1 34/42/1
f 21/36/1 32/30/1 23/27/1
f 31/23/1 32/30/1 28/26/1
f 21/36/1 32/30/1 24/32/1
f 34/42/1 63/39/1 35/43/1
f 39/44/1 36/45/1 63/39/1
f 36/45/1 35/43/1 63/39/1
f 63/46/1 38/47/1 41/48/1
f 42/49/1 39/44/1 63/39/1
f 63/46/1 41/48/1 40/50/1
f 63/46/1 40/50/1 44/51/1
f 44/51/1 56/52/1 52/53/1 47/54/1
f 63/46/1 44/51/1 47/54/1
f 45/55/1 42/49/1 63/39/1
f 27/29/4 45/55/4 63/39/4 33/31/4
f 33/41/1 63/46/1 47/54/1 22/37/1
f 45/55/1 54/56/1 58/57/1 42/49/1
f 27/29/6 62/58/6 54/56/6 45/55/6
f 65/59/4 66/60/4 68/61/4 67/62/4
f 67/63/1 71/64/1 77/65/1 108/66/1 74/67/1
f 65/59/1 69/68/1 75/69/1 73/70/1
f 65/59/7 67/62/7 74/71/7 73/70/7
f 69/68/1 72/72/1 78/73/1 75/69/1
f 65/59/1 70/74/1 76/75/1 73/70/1
f 82/76/1 79/77/1 85/78/1
f 78/73/1 84/79/1 85/78/1
f 81/80/1 79/77/1 85/78/1
f 75/69/1 78/73/1 85/78/1
f 80/81/5 79/77/5 85/78/5 87/82/5
f 87/82/1 85/78/1 92/83/1 90/84/1
f 76/75/1 82/76/1 85/78/1
f 83/85/1 107/86/1 80/81/1 87/82/1 88/87/1
f 73/70/3 74/71/3 86/88/3 85/78/3
f 84/79/1 81/80/1 85/78/1
f 73/70/1 75/69/1 85/78/1
f 73/70/1 76/75/1 85/78/1
f 95/89/1 94/90/1 132/91/1
f 85/78/4 86/88/4 90/92/4 92/83/4
f 94/90/1 89/93/1 132/91/1
f 89/93/1 91/94/1 132/91/1
f 96/95/1 132/91/1 93/96/1
f 93/96/1 132/91/1 91/94/1
f 132/97/1 98/98/1 95/99/1
f 96/95/1 93/96/1 120/100/1 117/101/1
f 99/102/1 132/91/1 96/95/1
f 132/97/1 97/103/1 98/98/1
f 95/99/1 98/98/1 115/104/1 118/105/1
f 104/106/8 86/88/8 123/107/8 109/108/8
f 132/97/1 101/109/1 97/103/1
f 101/109/1 104/106/1 109/108/1 113/110/1
f 94/90/1 95/89/1 118/111/1 119/112/1
f 132/97/1 104/106/1 101/109/1
f 98/98/1 97/103/1 116/113/1 115/104/1
f 102/114/1 132/91/1 99/102/1
f 91/94/1 89/93/1 122/115/1 121/116/1
f 93/96/1 91/94/1 121/116/1 120/100/1
f 109/117/1 110/118/1 140/119/1 139/120/1
f 117/101/1 120/100/1 151/121/1
f 116/113/1 113/110/1 143/122/1 149/123/1
f 109/108/1 123/107/1 139/124/1
f 118/105/1 115/104/1 148/125/1 153/126/1
f 99/102/1 96/95/1 117/101/1 114/127/1
f 87/82/1 90/84/1 132/91/1 102/114/1
f 89/93/1 94/90/1 119/112/1 122/115/1
f 90/92/4 86/88/4 104/106/4 132/97/4
f 102/114/1 99/102/1 114/127/1 111/128/1
f 97/103/1 101/109/1 113/110/1 116/113/1
f 48/129/1 46/130/1 103/131/1 105/132/1
f 19/33/1 50/35/1 107/86/1 83/85/1
f 13/8/1 49/133/1 106/134/1 77/65/1
f 20/24/1 17/25/1 81/80/1 84/79/1
f 50/35/1 16/28/1 80/81/1 107/86/1
f 49/133/1 19/33/1 83/85/1 106/134/1
f 64/135/1 43/136/1 100/137/1 135/138/1
f 7/9/9 13/8/9 77/65/9 71/64/9
f 10/6/1 64/135/1 135/138/1 74/67/1
f 1/1/10 2/4/10 66/60/10 65/59/10
f 14/14/1 20/24/1 84/79/1 78/73/1
f 2/4/11 4/3/11 68/61/11 66/60/11
f 12/16/1 18/18/1 82/76/1 76/75/1
f 10/6/1 48/129/1 105/132/1 74/67/1
f 4/3/12 3/2/12 67/62/12 68/61/12
f 8/15/13 14/14/13 78/73/13 72/72/13
f 1/1/1 5/12/1 69/68/1 65/59/1
f 6/17/13 12/16/13 76/75/13 70/74/13
f 1/1/1 6/17/1 70/74/1 65/59/1
f 16/28/14 15/21/14 79/77/14 80/81/14
f 3/5/1 7/9/1 71/64/1 67/63/1
f 17/25/1 15/21/1 79/77/1 81/80/1
f 5/12/1 8/15/1 72/72/1 69/68/1
f 18/18/1 15/21/1 79/77/1 82/76/1
f 33/41/15 32/30/15 126/139/15 125/140/15
f 33/31/16 63/39/16 124/141/16 125/142/16
f 63/39/1 33/31/1 133/143/1 131/144/1
f 85/78/1 92/83/1 128/145/1 130/146/1
f 92/83/1 90/84/1 129/147/1 128/145/1
f 32/30/1 33/41/1 133/148/1 134/149/1
f 90/84/1 132/91/1 127/150/1 129/147/1
f 59/151/16 58/57/16 138/152/16 137/153/16
f 142/154/1 141/155/1 145/156/1 146/157/1
f 140/119/1 142/154/1 146/157/1 144/158/1
f 139/124/1 140/159/1 144/160/1 143/122/1
f 144/158/1 146/157/1 152/161/1 150/162/1
f 143/163/1 144/158/1 150/162/1 149/164/1
f 149/164/1 150/162/1 147/165/1 148/166/1
f 146/157/1 145/156/1 151/121/1 152/161/1
f 110/118/1 112/167/1 142/154/1 140/119/1
f 111/128/1 114/127/1 145/156/1 141/155/1
f 115/104/1 116/113/1 149/123/1 148/125/1
f 113/110/1 109/108/1 139/124/1 143/122/1
f 114/127/1 117/101/1 151/121/1 145/156/1
f 135/138/17 64/135/17 154/168/17 155/169/17
f 84/79/18 20/24/18 156/170/18 157/171/18
f 157/171/19 156/170/19 158/172/19 159/173/19
l 52 53
l 54 55
l 53 55
l 56 57
l 57 59
l 137 60
l 58 61
l 136 27
